# xmcd CD database file
#
# Track frame offsets:
#	150
#	10082
#	24148
#	33803
#	47365
#	60855
#	66292
#	71484
#	82845
#	91714
#
# Disc length: 1324 seconds
#
# Revision: 0
# Processed by: cddbd v1.5PL3 Copyright (c) Steve Scherf et al.
# Submitted via: CDex 1.50beta10
#
DISCID=5e052a0a
DTITLE=Musikverein Seebronn - Schotten - Seebronner Fasnet's Musik
DYEAR=2004
DGENRE=Fetenhits
TTITLE0=Musikverein Seebronn - Seebronner Narrenmarsch
TTITLE1=Seebronner Schotten - Marschset
TTITLE2=Musikverein Seebronn - Urlaubszeit
TTITLE3=Seebronner Schotten - Bad Moon Rising
TTITLE4=Musikverein Seebronn - Schunkelrunde
TTITLE5=Seebronner Schotten - Tanz
TTITLE6=Musikverein Seebronn - Seebronner Nationalhymne
TTITLE7=Seebronner Schotten - Rock The Billy Piper
TTITLE8=Musikverein Seebronn - Petersburger Marsch
TTITLE9=Musikverein Seebronn - Rottenburger Marsch
EXTD=YEAR: 2004
EXTT0=
EXTT1=
EXTT2=
EXTT3=
EXTT4=
EXTT5=
EXTT6=
EXTT7=
EXTT8=
EXTT9=
PLAYORDER=
